<?xml version="1.0" encoding="UTF-8" standalone="no"?>
<!-- Created with Inkscape (http://www.inkscape.org/) -->

<svg
   xmlns:dc="http://purl.org/dc/elements/1.1/"
   xmlns:cc="http://creativecommons.org/ns#"
   xmlns:rdf="http://www.w3.org/1999/02/22-rdf-syntax-ns#"
   xmlns:svg="http://www.w3.org/2000/svg"
   xmlns="http://www.w3.org/2000/svg"
   xmlns:sodipodi="http://sodipodi.sourceforge.net/DTD/sodipodi-0.dtd"
   xmlns:inkscape="http://www.inkscape.org/namespaces/inkscape"
   width="120"
   height="120"
   id="svg3001"
   version="1.1"
   inkscape:version="0.48.4 r9939"
   inkscape:export-filename="/home/jordi/projectes/Quasar-cli/canonsBN/src/statics/icons/gbn64x64.png"
   inkscape:export-xdpi="90"
   inkscape:export-ydpi="90"
   sodipodi:docname="grupBN.svg">
  <defs
     id="defs3003">
    <inkscape:perspective
       sodipodi:type="inkscape:persp3d"
       inkscape:vp_x="-74.08443 : -62.295183 : 1"
       inkscape:vp_y="0 : 5133.6142 : 0"
       inkscape:vp_z="418.63443 : -62.295183 : 1"
       inkscape:persp3d-origin="172.275 : -117.05374 : 1"
       id="perspective3112" />
    <filter
       id="filter3298"
       inkscape:label="Matte bevel"
       inkscape:menu="Bevels"
       inkscape:menu-tooltip="Soft, pastel-colored, blurry bevel"
       x="-0.25"
       y="-0.25"
       width="1.5"
       height="1.5"
       color-interpolation-filters="sRGB">
      <feGaussianBlur
         id="feGaussianBlur3300"
         stdDeviation="1"
         result="result6" />
      <feComposite
         id="feComposite3302"
         in2="result6"
         operator="in"
         in="result6"
         result="result7" />
      <feGaussianBlur
         id="feGaussianBlur3304"
         stdDeviation="8"
         result="result3"
         in="result7" />
      <feComposite
         id="feComposite3306"
         in2="result7"
         operator="over"
         result="result91" />
      <feComposite
         id="feComposite3308"
         in2="result91"
         operator="in"
         in="result3"
         result="result5" />
      <feColorMatrix
         id="feColorMatrix3310"
         values="0 0 0 -1 0 0 0 0 -1 0 0 0 0 -1 0 0 0 0 1 0 "
         result="result4" />
      <feSpecularLighting
         id="feSpecularLighting3312"
         surfaceScale="3"
         specularConstant="2"
         specularExponent="45"
         in="result4"
         result="result11">
        <fePointLight
           id="fePointLight3314"
           x="-5000"
           y="-10000"
           z="20000" />
      </feSpecularLighting>
      <feComposite
         id="feComposite3316"
         in2="result4"
         operator="arithmetic"
         k1="1"
         result="result10"
         k2="0"
         k3="0"
         k4="0" />
      <feComposite
         id="feComposite3318"
         in2="result10"
         operator="arithmetic"
         k2="0.5"
         k3="1"
         in="result5"
         result="result8"
         k1="0"
         k4="0" />
      <feComposite
         id="feComposite3320"
         in2="result8"
         result="result9" />
      <feBlend
         id="feBlend3322"
         in2="result9"
         mode="normal" />
    </filter>
  </defs>
  <sodipodi:namedview
     id="base"
     pagecolor="#ffffff"
     bordercolor="#666666"
     borderopacity="1.0"
     inkscape:pageopacity="0.0"
     inkscape:pageshadow="2"
     inkscape:zoom="2.3475945"
     inkscape:cx="32.657895"
     inkscape:cy="44.488032"
     inkscape:current-layer="layer3"
     showgrid="true"
     inkscape:document-units="px"
     inkscape:grid-bbox="true"
     inkscape:snap-to-guides="true"
     inkscape:snap-bbox="false"
     inkscape:bbox-nodes="false"
     inkscape:snap-bbox-midpoints="false"
     showguides="true"
     inkscape:guide-bbox="true"
     inkscape:snap-global="false"
     inkscape:window-width="1024"
     inkscape:window-height="553"
     inkscape:window-x="0"
     inkscape:window-y="0"
     inkscape:window-maximized="1">
    <sodipodi:guide
       orientation="0,1"
       position="23.945386,63.485973"
       id="guide3080" />
  </sodipodi:namedview>
  <metadata
     id="metadata3006">
    <rdf:RDF>
      <cc:Work
         rdf:about="">
        <dc:format>image/svg+xml</dc:format>
        <dc:type
           rdf:resource="http://purl.org/dc/dcmitype/StillImage" />
        <dc:title></dc:title>
      </cc:Work>
    </rdf:RDF>
  </metadata>
  <g
     inkscape:groupmode="layer"
     id="layer3"
     inkscape:label="Cercle"
     style="display:inline"
     transform="translate(0,56)">
    <rect
       style="fill:none;stroke:#000000;stroke-width:0;stroke-linecap:round;stroke-linejoin:round;stroke-miterlimit:4;stroke-opacity:1;stroke-dasharray:none"
       id="rect3005"
       width="119.45998"
       height="114.15398"
       x="1.3019055"
       y="-52.209709" />
    <rect
       y="-52.209709"
       x="1.3019055"
       height="114.15398"
       width="119.45998"
       id="rect3007"
       style="fill:none;stroke:#000000;stroke-width:0;stroke-linecap:round;stroke-linejoin:round;stroke-miterlimit:4;stroke-opacity:1;stroke-dasharray:none" />
    <rect
       y="-52.209709"
       x="1.3019055"
       height="114.15398"
       width="119.45998"
       id="rect3009"
       style="fill:none;stroke:#000000;stroke-width:0;stroke-linecap:round;stroke-linejoin:round;stroke-miterlimit:4;stroke-opacity:1;stroke-dasharray:none" />
    <path
       style="fill:none;stroke:#000000;stroke-width:0;stroke-linecap:round;stroke-linejoin:round;stroke-miterlimit:4;stroke-opacity:1;stroke-dasharray:none"
       d="m 17.267338,-50.918332 0,5.916551 -2.117573,0 0,2.450642 -1.607788,0 0,13.233472 -0.352929,0 0,8.297177 -9.7251542,0 0,8.262165 -1.0195726,0 0,1.820477 -0.2352859,0 0,70.508493 0.2352859,0 0,0.770202 81.8795248,0 0,-0.420111 5.137077,0 0,-11.763085 9.293796,0 0,-0.315083 2.313651,0 0,-4.411155 18.11702,0 0,-76.845154 -2.62736,0 0,-4.691231 -2.9803,0 0,-0.07002 -4.54886,0 0,-0.770204 -5.60765,0 0,-1.050275 -3.725357,0 0,-10.922863 -82.428525,0 z"
       id="rect3011"
       inkscape:connector-curvature="0" />
    <path
       sodipodi:type="arc"
       style="fill:#ffff99;fill-opacity:1;fill-rule:nonzero;stroke:#000000;stroke-width:0;stroke-linecap:round;stroke-linejoin:round;stroke-miterlimit:4;stroke-opacity:1;stroke-dasharray:none"
       id="path3109"
       sodipodi:cx="33.970943"
       sodipodi:cy="34.288734"
       sodipodi:rx="24.812632"
       sodipodi:ry="26.942472"
       d="m 58.783575,34.288734 a 24.812632,26.942472 0 1 1 -49.6252632,0 24.812632,26.942472 0 1 1 49.6252632,0 z"
       transform="matrix(2.2805448,0,0,2.0139459,-17.226271,-64.376134)" />
  </g>
  <g
     inkscape:groupmode="layer"
     id="layer5"
     inkscape:label="Pentagrama"
     transform="translate(0,56)">
    <path
       style="fill:#d9bb7a;fill-opacity:1;fill-rule:nonzero;stroke:#000000;stroke-width:0;stroke-linecap:round;stroke-linejoin:round;stroke-miterlimit:4;stroke-opacity:1;stroke-dasharray:none"
       d="m 16.807826,-26.014297 c 0,-0.37342 0.244509,-0.375506 44.011571,-0.375506 43.767073,0 44.011583,0.0021 44.011583,0.375506 0,0.373421 -0.24451,0.375505 -44.011583,0.375505 -43.767062,0 -44.011571,-0.0021 -44.011571,-0.375505 z"
       id="path4427"
       inkscape:connector-curvature="0" />
    <path
       style="fill:#d9bb7a;fill-opacity:1;fill-rule:nonzero;stroke:#000000;stroke-width:0;stroke-linecap:round;stroke-linejoin:round;stroke-miterlimit:4;stroke-opacity:1;stroke-dasharray:none"
       d="m 31.325191,-10.528088 c -12.491078,-0.08103 -22.8415717,-0.238859 -23.0010962,-0.350751 -0.1595245,-0.111903 -0.1806795,-0.280074 -0.047013,-0.373733 0.383299,-0.26858 103.3303782,0.446413 104.0029282,0.722327 0.63279,0.259606 -41.092101,0.260719 -80.954819,0.0021 z"
       id="path4429"
       inkscape:connector-curvature="0" />
    <path
       style="fill:#d9bb7a;fill-opacity:1;fill-rule:nonzero;stroke:#000000;stroke-width:0;stroke-linecap:round;stroke-linejoin:round;stroke-miterlimit:4;stroke-opacity:1;stroke-dasharray:none"
       d="M 14.986756,7.4057798 C -7.0242802,6.9988323 8.0804844,6.6811335 59.852056,6.462128 100.75466,6.2890999 113.87731,6.338748 113.35149,6.6645448 c -0.5078,0.3146151 -10.69232,0.4744943 -37.555224,0.5895525 -20.272162,0.086831 -39.962532,0.198723 -43.756377,0.2486533 -3.793843,0.04993 -11.467754,0.00635 -17.053133,-0.096969 z"
       id="path4431"
       inkscape:connector-curvature="0" />
    <path
       style="fill:#d9bb7a;fill-opacity:1;fill-rule:nonzero;stroke:#000000;stroke-width:0;stroke-linecap:round;stroke-linejoin:round;stroke-miterlimit:4;stroke-opacity:1;stroke-dasharray:none"
       d="M 23.937504,23.928067 C 15.800843,23.824803 9.3210992,23.631403 9.5380779,23.498287 10.003184,23.212945 56.088631,23.035896 90.608838,23.186832 c 20.536242,0.08977 22.898952,0.151553 15.385702,0.402274 -11.224371,0.374539 -62.548525,0.586549 -82.057036,0.338961 z"
       id="path4433"
       inkscape:connector-curvature="0" />
    <path
       style="fill:#d9bb7a;fill-opacity:1;fill-rule:nonzero;stroke:#000000;stroke-width:0;stroke-linecap:round;stroke-linejoin:round;stroke-miterlimit:4;stroke-opacity:1;stroke-dasharray:none"
       d="m 18.016299,39.046399 c 0.685531,-0.286166 84.740131,-1.008919 85.128211,-0.731984 0.13409,0.09571 0.15145,0.239881 0.0385,0.320421 -0.32558,0.232341 -43.090951,0.668656 -65.428533,0.66754 -12.598958,-6.29e-4 -20.116428,-0.09813 -19.738271,-0.255977 z"
       id="path4435"
       inkscape:connector-curvature="0" />
  </g>
  <g
     id="layer1"
     inkscape:label="Clau de sol -negre-"
     inkscape:groupmode="layer"
     style="display:inline"
     transform="translate(0,56)">
    <path
       style="fill:#000000"
       d="m 33.30125,52.515678 c -4.172528,-1.003948 -4.926284,-1.388976 -7.410375,-3.785314 -1.116589,-1.077142 -1.160182,-1.21524 -1.148007,-3.636787 0.007,-1.409838 0.203465,-2.797124 0.446408,-3.153619 0.238566,-0.350067 1.222973,-1.130234 2.187581,-1.733698 2.252966,-1.409478 4.962174,-1.965152 7.779851,-1.595697 2.40258,0.315029 2.980513,0.544743 4.358467,1.732378 0.959351,0.826849 1.033564,1.052913 1.00808,3.070707 -0.01568,1.249285 -0.22897,2.450755 -0.499905,2.817403 -0.259823,0.351595 -1.548328,1.16676 -2.863363,1.811482 -2.390089,1.171788 -3.404512,1.887703 -3.067022,2.164515 0.09858,0.08087 2.170491,0.176541 4.604249,0.212608 4.093811,0.06069 4.524653,0.01428 5.756262,-0.618544 0.732187,-0.376278 1.879065,-1.298973 2.548621,-2.05043 1.962429,-2.202486 2.37121,-3.62065 2.359846,-8.18689 -0.0092,-3.794242 -0.06771,-4.123159 -1.048138,-5.921371 L 47.275667,31.738452 42.699062,31.554728 C 35.154848,31.251887 31.99558,30.730729 27.774006,29.092669 c -1.024523,-0.397539 -1.956429,-0.722795 -2.0709,-0.722795 -0.617804,0 -4.609494,-2.496322 -6.157801,-3.850962 -2.913065,-2.548693 -5.171759,-5.491324 -5.171759,-6.73778 0,-0.244491 -0.114925,-0.538795 -0.255387,-0.654005 -0.551213,-0.452111 -1.142375,-3.070773 -1.157357,-5.126722 -0.01514,-2.074268 0.488554,-4.2646279 1.115822,-4.8524983 0.163307,-0.1530524 0.296923,-0.5736656 0.296923,-0.934699 0,-0.3610352 0.148341,-0.7316245 0.32965,-0.8235318 0.181306,-0.091891 0.438732,-0.5744551 0.572052,-1.0723295 0.133321,-0.4978726 0.533746,-1.1441856 0.889834,-1.4362511 0.356089,-0.292069 1.209152,-1.2512639 1.895694,-2.13154728 0.686543,-0.88028324 3.216946,-3.25759072 5.623116,-5.28290932 2.406167,-2.025317 4.469643,-3.7922994 4.585501,-3.9266301 0.115849,-0.1343275 1.014181,-0.7670151 1.996279,-1.4059739 0.982099,-0.6389587 1.841183,-1.2654717 1.909074,-1.3922527 0.0679,-0.126765 0.515334,-0.612516 0.994315,-1.07941 l 0.870876,-0.848897 -0.708344,-1.849777 c -1.349976,-3.525354 -1.941709,-7.633679 -1.677891,-11.649392 0.231152,-3.518418 0.852862,-6.819549 1.519556,-8.068435 1.526431,-2.85939 4.156426,-5.407763 6.714141,-6.50577 1.749248,-0.750939 4.993943,-0.570527 7.838284,0.435824 1.353385,0.478838 2.607717,1.086085 2.787401,1.349437 0.179669,0.263351 0.700541,0.785453 1.157466,1.160225 1.384882,1.135894 1.986906,3.491768 1.986906,7.775255 0,3.98421 -0.300433,5.615135 -1.489816,8.087618 -0.387502,0.805528 -0.995214,2.190575 -1.350482,3.077887 -0.355268,0.887308 -1.010744,2.139539 -1.456611,2.782727 -0.445871,0.643191 -1.199956,1.778097 -1.675745,2.522014 -0.475796,0.743915 -2.380021,2.842111 -4.231614,4.6626516 -1.851596,1.8205441 -3.366534,3.5252108 -3.366534,3.7881485 0,0.262943 -0.16572,0.6140064 -0.368287,0.780146 -0.252962,0.2074821 -0.187324,0.8449532 0.209657,2.035786 0.317869,0.9535426 0.716868,2.19662761 0.886667,2.76241389 0.169816,0.56578273 0.559737,1.52143041 0.866524,2.12365941 l 0.557786,1.0949622 2.529411,0 c 4.111278,0 8.665641,1.2914215 11.746063,3.3306772 2.506736,1.6594686 3.376313,2.5467037 4.75873,4.8553332 0.868684,1.450701 0.955294,1.902895 0.955294,4.987698 0,3.159538 -0.06985,3.50237 -1.017961,4.995335 -1.097687,1.728514 -3.859257,4.259591 -5.588879,5.122393 -0.589259,0.293945 -1.995446,1.190903 -3.124858,1.99324 -2.192328,1.557431 -2.447171,2.16958 -1.720548,4.132867 0.1831,0.494755 0.522841,1.492715 0.754958,2.217687 0.23211,0.724976 0.549351,1.581761 0.704959,1.903973 1.445646,2.993377 1.814403,7.085091 0.848775,9.417935 -1.147211,2.771508 -4.482165,5.146911 -8.77599,6.250914 -2.660108,0.683945 -8.420243,0.751328 -11.0077,0.128758 z M 44.132864,28.32376 c 1.932874,-0.42674 1.903422,-0.307709 0.858303,-3.468903 -0.292945,-0.886079 -0.635794,-2.289748 -0.761885,-3.119265 -0.126108,-0.829521 -0.521184,-2.279468 -0.877977,-3.222108 -0.356792,-0.942642 -0.943817,-2.768402 -1.304501,-4.057244 -0.360683,-1.288842 -0.808241,-2.508121 -0.994572,-2.709498 -0.612305,-0.661768 -1.91563,-0.384455 -3.714554,0.790352 -3.480392,2.272908 -4.822836,4.9232 -3.508044,6.925677 0.349836,0.532815 1.940956,1.865142 3.535823,2.960733 l 2.899757,1.991975 -1.724093,0.09021 c -0.948257,0.04962 -1.912497,-0.03205 -2.142763,-0.181504 -0.230277,-0.149455 -1.018727,-0.430239 -1.752143,-0.623979 -2.241538,-0.592128 -4.416331,-3.065186 -5.234884,-5.952819 -0.543437,-1.917096 -0.496409,-3.358774 0.180629,-5.537599 0.687427,-2.2122401 1.316868,-3.2835737 2.687426,-4.5740925 0.562021,-0.5291955 1.021859,-1.0734122 1.021859,-1.2093682 0,-0.135933 0.470498,-0.4070372 1.04556,-0.6024069 0.575057,-0.1953646 1.323147,-0.606806 1.662417,-0.9142984 0.339273,-0.307489 0.918408,-0.5590672 1.286971,-0.5590672 0.368564,0 0.768618,-0.2105603 0.889019,-0.4679003 0.272795,-0.5830645 -1.462188,-5.0706372 -2.635706,-6.8173548 -0.174668,-0.2599829 -3.767181,2.39063979 -6.896495,5.0883613 -3.210173,2.7674285 -5.708435,5.4018362 -5.708435,6.0195239 0,0.1530348 -0.122788,0.2782377 -0.27288,0.2782377 -0.562026,0 -1.960003,3.2260354 -2.478658,5.7198584 -0.312804,1.504053 -0.144797,2.566597 0.855582,5.411054 0.671613,1.909642 3.736713,5.223356 5.528144,5.976538 0.653961,0.274952 2.146162,0.942013 3.316006,1.482369 1.46126,0.674954 2.963396,1.084491 4.799299,1.308459 1.469771,0.179284 2.762522,0.403562 2.87278,0.498365 0.297353,0.255662 4.58589,-0.08664 6.56801,-0.524289 l 0,0 z m 8.228197,-3.036838 c 3.79313,-3.420277 4.10798,-8.708786 0.735046,-12.346258 -1.106397,-1.19317 -4.121602,-2.361169 -6.389895,-2.475252 l -1.772911,-0.08916 0.106052,1.41481 c 0.05836,0.778148 0.332114,2.025681 0.608385,2.772298 0.276257,0.746615 0.50405,1.655852 0.506177,2.020525 0.0022,0.364673 0.148894,0.891924 0.326185,1.171673 0.413655,0.652769 1.014346,2.525692 1.290477,4.023659 0.24037,1.303973 0.810589,2.955557 1.288056,3.73074 0.172325,0.279753 0.313286,0.708144 0.313286,0.951988 0,0.891027 1.237223,0.404679 2.98912,-1.175013 l 0,0 z M 39.983181,-16.94095 c 0.104316,-0.222986 1.072907,-1.158645 2.152411,-2.079246 1.079501,-0.920602 2.104316,-1.937447 2.277364,-2.25966 0.446134,-0.83068 1.116935,-1.65508 1.775932,-2.182584 0.311731,-0.249525 0.850528,-1.046844 1.197325,-1.771816 0.346797,-0.724977 0.774755,-1.547022 0.95101,-1.826773 0.176239,-0.279747 0.320464,-0.766271 0.320464,-1.081158 0,-0.314886 0.160701,-0.653989 0.357126,-0.753557 0.509306,-0.258175 0.431754,-2.435114 -0.134243,-3.768618 -0.780277,-1.83832 -3.535584,-3.242259 -5.697774,-2.903243 -1.878156,0.294482 -4.091709,2.657167 -5.427451,5.793105 -1.159165,2.721392 -1.37029,4.086783 -1.394435,9.018252 -0.02733,5.563057 0.09679,5.835048 2.19716,4.8186 0.679489,-0.328828 1.320793,-0.780313 1.425118,-1.003302 z"
       id="path3088"
       inkscape:connector-curvature="0" />
  </g>
  <g
     inkscape:groupmode="layer"
     inkscape:label="Clau de sol -gris-"
     id="g3082"
     style="display:inline"
     transform="translate(0,56)">
    <path
       inkscape:transform-center-y="7.2724791"
       inkscape:transform-center-x="26.406228"
       inkscape:connector-curvature="0"
       id="path3084"
       d="m 16.159473,58.855648 c 2.65e-4,-0.0806 -0.372626,-0.182504 -0.828629,-0.226477 -0.456011,-0.04395 -0.883441,-0.151179 -0.949844,-0.238267 -0.06642,-0.08708 -0.413276,-0.206984 -0.770812,-0.266448 -0.357543,-0.05947 -0.649843,-0.172947 -0.649611,-0.25209 2.59e-4,-0.07919 -0.179299,-0.189114 -0.399008,-0.24429 -0.219707,-0.05518 -0.453076,-0.281483 -0.518594,-0.502907 -0.06551,-0.221422 -0.290149,-0.445537 -0.49918,-0.498029 -0.209066,-0.05242 -0.379723,-0.197907 -0.37932,-0.323143 4.08e-4,-0.125236 -0.110243,-0.257073 -0.245907,-0.292964 -0.35055,-0.0927 -0.343104,-3.354856 0.008,-3.459968 0.137724,-0.04123 0.250746,-0.182566 0.251183,-0.314053 4.21e-4,-0.131499 0.08618,-0.240502 0.190597,-0.24225 0.104413,-0.0017 0.442754,-0.196071 0.751882,-0.431822 0.309129,-0.235761 0.686457,-0.519931 0.838511,-0.631493 0.152051,-0.111556 0.737868,-0.247004 1.301816,-0.300983 0.563945,-0.05398 1.091799,-0.183581 1.173003,-0.288081 0.108237,-0.139243 0.148309,-0.139913 0.150108,-0.0025 0.0015,0.105415 0.514573,0.218057 1.172766,0.257388 1.037806,0.06202 1.266118,0.147729 2.016525,0.75703 l 0.846214,0.687092 0.01317,1.374126 c 0.0088,0.915099 -0.06555,1.397544 -0.222469,1.444231 -0.129597,0.03855 -0.235971,0.172569 -0.236378,0.29781 -4.09e-4,0.125236 -0.181017,0.278919 -0.401361,0.341518 -0.220347,0.06259 -0.400828,0.176414 -0.401077,0.252908 -2.52e-4,0.0765 -0.225758,0.190508 -0.501143,0.253345 -0.275384,0.06281 -0.500935,0.188756 -0.501229,0.279798 -2.87e-4,0.09104 -0.121855,0.167571 -0.270124,0.170048 -0.340661,0.0056 -1.237503,0.664223 -1.081108,0.793836 0.06415,0.05316 1.185291,0.120318 2.491408,0.149237 2.029628,0.04492 2.422522,0.01154 2.703387,-0.22926 0.180745,-0.155007 0.411342,-0.283208 0.512439,-0.284899 0.280779,-0.0047 1.047576,-0.62218 1.048292,-0.844174 3.45e-4,-0.108053 0.135877,-0.242421 0.301161,-0.298608 0.165293,-0.0562 0.300866,-0.207944 0.301292,-0.337238 4.21e-4,-0.129302 0.09082,-0.236591 0.200903,-0.238429 0.110098,-0.0017 0.200736,-0.186871 0.201457,-0.411182 7.34e-4,-0.224305 0.114002,-0.441449 0.251723,-0.482543 0.187475,-0.05592 0.252778,-0.809832 0.259853,-2.999728 0.0071,-2.190042 -0.05335,-2.941622 -0.240495,-2.991082 -0.137467,-0.03633 -0.249482,-0.211614 -0.248902,-0.389517 5.71e-4,-0.177903 -0.08903,-0.321953 -0.199096,-0.320113 -0.110066,0.0018 -0.199552,-0.178387 -0.198835,-0.400495 7.17e-4,-0.222115 -0.141017,-0.447558 -0.314943,-0.500985 -0.173962,-0.05338 -1.34461,-0.07995 -2.601494,-0.05895 -1.256888,0.02101 -2.285039,-0.02659 -2.284782,-0.105786 2.52e-4,-0.0792 -0.692272,-0.181764 -1.538899,-0.228005 -0.846653,-0.04621 -1.589304,-0.147887 -1.650341,-0.225958 -0.06105,-0.0781 -0.448542,-0.188667 -0.861145,-0.245737 -0.412583,-0.0571 -0.749948,-0.166827 -0.7497,-0.243833 2.45e-4,-0.07703 -0.274813,-0.181863 -0.611255,-0.232999 C 12.453043,45.277599 12.041849,45.123095 11.875713,44.98541 11.709577,44.847727 11.409588,44.73782 11.209077,44.74117 11.00856,44.74447 10.793011,44.634257 10.73012,44.496052 10.6672,44.357882 10.480919,44.247096 10.316148,44.249844 10.151371,44.252544 9.7513811,44.05045 9.4272761,43.800636 9.1032031,43.550845 8.5202343,43.123951 8.1318195,42.852007 7.7434052,42.580063 7.4217571,42.270828 7.4170448,42.164824 7.412387,42.058803 7.2735225,41.930628 7.1085812,41.879963 6.9436045,41.829348 6.8090603,41.671546 6.8095181,41.529407 6.8099743,41.38727 6.7202825,41.272477 6.6102139,41.274317 6.5001471,41.276103 6.4103509,41.191661 6.4106914,41.086511 6.4110222,40.981383 6.2436637,40.775273 6.0387606,40.628506 5.8338623,40.481733 5.6027395,40.115992 5.525161,39.815736 5.4476019,39.515433 5.3012207,39.271155 5.199891,39.27285 5.0985775,39.27445 5.0163894,39.048105 5.0172889,38.769651 c 8.93e-4,-0.278454 -0.088432,-0.50477 -0.198506,-0.502932 -0.1100668,0.0019 -0.1994036,-0.224478 -0.1985026,-0.50293 9.074e-4,-0.278452 -0.088432,-0.504775 -0.1985043,-0.502932 -0.1223055,0.002 -0.197597,-0.784199 -0.1935977,-2.021767 0.00401,-1.237569 0.084385,-2.02641 0.2066858,-2.028457 0.110067,-0.0017 0.2007593,-0.193197 0.2015046,-0.425243 7.452e-4,-0.232044 0.091436,-0.423402 0.2015029,-0.425243 0.1100669,-0.0018 0.2008829,-0.231169 0.2017775,-0.509623 9.075e-4,-0.27845 0.090633,-0.507764 0.199415,-0.509583 0.1087821,-0.0017 0.2559486,-0.305879 0.327056,-0.675696 0.086152,-0.448029 0.2547199,-0.708031 0.5052077,-0.779193 0.2067628,-0.05876 0.3762816,-0.215595 0.3767121,-0.348567 4.369e-4,-0.132981 0.081077,-0.243108 0.1792261,-0.244748 0.09815,-0.0016 0.2355686,-0.193784 0.3053815,-0.426982 0.069834,-0.233197 0.215285,-0.425475 0.323272,-0.427282 0.1079629,-0.0017 0.196683,-0.112077 0.1971006,-0.245049 4.352e-4,-0.132981 0.1808515,-0.292923 0.400942,-0.355449 0.2200921,-0.06253 0.4557651,-0.299396 0.5237227,-0.526378 0.067957,-0.226981 0.1898575,-0.4138 0.2708759,-0.415155 0.2288547,-0.0039 1.2115944,-0.770681 1.2224834,-0.953935 0.0053,-0.08996 0.3274879,-0.396662 0.7158729,-0.681595 1.499116,-1.099795 2.084127,-1.600544 2.084722,-1.784461 3.41e-4,-0.105072 0.07808,-0.192319 0.172766,-0.193898 0.09468,-0.0016 0.507237,-0.274261 0.916796,-0.605953 0.409556,-0.33169 0.826579,-0.604442 0.926722,-0.606116 0.100126,-0.0016 0.238387,-0.191107 0.3072,-0.420965 0.06882,-0.229852 0.296447,-0.46659 0.505839,-0.526077 0.388533,-0.110388 0.546038,-0.76318 0.182677,-0.757106 -0.110066,0.0018 -0.199421,-0.218149 -0.198547,-0.488866 8.7e-4,-0.270721 -0.08591,-0.516066 -0.192873,-0.545215 -0.106967,-0.02915 -0.253125,-0.602564 -0.324815,-1.274258 -0.07168,-0.671682 -0.207482,-1.219958 -0.301752,-1.218383 -0.09426,0.0015 -0.166983,-1.364084 -0.161584,-3.034799 0.0055,-1.67073 0.08686,-3.038956 0.181017,-3.040529 0.09417,-0.0015 0.22958,-0.516043 0.300938,-1.1432633 0.07136,-0.6272223 0.221216,-1.1676177 0.333014,-1.2008803 0.111786,-0.033263 0.203751,-0.2060314 0.204364,-0.3839211 5.7e-4,-0.1779014 0.09111,-0.3249598 0.201182,-0.3268011 0.110066,-0.00184 0.200513,-0.1172567 0.20096,-0.2564842 4.47e-4,-0.1392265 0.08373,-0.2545234 0.185051,-0.2562199 0.101313,-0.00169 0.24042,-0.2170838 0.309103,-0.4786403 0.06868,-0.2615562 0.310103,-0.5883281 0.536506,-0.7261558 0.226402,-0.137828 0.725999,-0.5026484 1.11022,-0.8107125 0.384222,-0.3080634 0.827264,-0.5622671 0.984541,-0.5648958 0.157287,-0.00263 0.286207,-0.080723 0.286507,-0.1735399 3.18e-4,-0.097504 0.634325,-0.1793534 1.501598,-0.1938519 0.825582,-0.013802 1.500841,0.041355 1.500577,0.1225721 -2.68e-4,0.081215 0.274792,0.1895058 0.611227,0.2406473 0.336437,0.05114 0.747633,0.2056345 0.913768,0.3433194 0.166136,0.1376848 0.474044,0.2474605 0.684241,0.2439474 0.239251,-0.004 0.427955,0.1483519 0.504606,0.4073927 0.06735,0.2275792 0.29346,0.4567293 0.50249,0.5092217 0.209034,0.052488 0.379704,0.2042349 0.379272,0.3372071 -4.3e-4,0.1329711 0.07907,0.240431 0.17664,0.2388006 0.09759,-0.00164 0.237086,0.3377557 0.310018,0.7541929 0.07293,0.4164385 0.217146,0.7557455 0.32048,0.754018 0.108734,-0.00181 0.184432,1.0633147 0.179699,2.5282479 -0.0045,1.392261 -0.08776,2.532717 -0.185007,2.534344 -0.09723,0.0016 -0.241109,0.497624 -0.319687,1.102221 -0.07857,0.604595 -0.225755,1.100648 -0.32707,1.102342 -0.101298,0.0016 -0.18471,0.154962 -0.185362,0.340582 -5.96e-4,0.185636 -0.09116,0.339022 -0.201216,0.340867 -0.110084,0.0017 -0.200884,0.231169 -0.201778,0.509624 -9.08e-4,0.27845 -0.08019,0.507589 -0.176195,0.509196 -0.09601,0.0016 -0.233149,0.307648 -0.304761,0.680093 -0.07161,0.372446 -0.219202,0.678664 -0.327966,0.680485 -0.108783,0.0017 -0.198259,0.155185 -0.1989,0.340815 -5.96e-4,0.185638 -0.09116,0.339022 -0.201217,0.340868 -0.110067,0.0018 -0.200517,0.117255 -0.20096,0.256485 -4.49e-4,0.13923 -0.08373,0.254524 -0.185051,0.256219 -0.101314,0.0016 -0.244322,0.231897 -0.317751,0.511562 -0.07344,0.279664 -0.216416,0.50987 -0.31775,0.511563 -0.101313,0.0016 -0.184603,0.116979 -0.185049,0.256218 -4.51e-4,0.139231 -0.09089,0.254644 -0.20096,0.256486 -0.110068,0.0018 -0.200424,0.08932 -0.20076,0.194367 -3.43e-4,0.105073 -0.31664,0.446971 -0.702909,0.759793 -0.386261,0.312826 -0.702443,0.61547 -0.702627,0.672544 -1.95e-4,0.05708 -0.226063,0.283483 -0.501951,0.503132 -0.275882,0.219657 -0.501867,0.47746 -0.502174,0.572911 -3.1e-4,0.09544 -0.135812,0.219508 -0.301088,0.2757 -0.165287,0.05619 -0.3009,0.218452 -0.301354,0.360594 -4.55e-4,0.142137 -0.0909,0.259938 -0.200977,0.261778 -0.110067,0.0018 -0.200761,0.193201 -0.201505,0.425245 -7.45e-4,0.232045 -0.09144,0.423402 -0.201504,0.425243 -0.110067,0.0018 -0.200503,0.117269 -0.20096,0.256484 -4.48e-4,0.139231 0.08925,0.251632 0.199319,0.249792 0.110068,-0.0018 0.199159,0.300421 0.197959,0.671694 -0.0012,0.371269 0.07629,0.673723 0.172177,0.67212 0.0959,-0.0016 0.232867,0.375796 0.304378,0.838662 0.07152,0.462869 0.216982,0.840122 0.323268,0.838345 0.106277,-0.0017 0.192657,0.178506 0.191944,0.400613 -0.0017,0.524589 0.304596,0.60359 2.215945,0.571636 0.871616,-0.01457 1.584537,0.04082 1.58427,0.123107 -2.57e-4,0.08227 0.404635,0.194067 0.899803,0.248384 0.495147,0.05434 0.900051,0.164081 0.899778,0.243868 -2.55e-4,0.07976 0.28628,0.193357 0.636763,0.252428 0.350469,0.05909 0.867574,0.286252 1.149114,0.504825 0.843752,0.655042 1.700372,1.212106 1.860137,1.209653 0.08255,-0.0014 0.149802,0.09486 0.149417,0.21358 -3.89e-4,0.118739 0.175767,0.320385 0.391448,0.448108 0.215681,0.127722 0.446957,0.444372 0.51395,0.703662 0.06699,0.259292 0.204715,0.47005 0.306047,0.468358 0.101313,-0.0016 0.183763,0.14248 0.183191,0.320376 -5.69e-4,0.1779 0.111432,0.353198 0.248904,0.389554 0.184453,0.04879 0.247902,0.699857 0.242133,2.484935 -0.0057,1.785018 -0.07344,2.438374 -0.258221,2.493411 -0.137725,0.04105 -0.250875,0.220137 -0.251445,0.398037 -5.72e-4,0.177903 -0.08133,0.3248 -0.179427,0.326457 -0.09815,0.0016 -0.234048,0.188694 -0.302004,0.415679 -0.06796,0.22698 -0.30363,0.463847 -0.523719,0.526374 -0.220093,0.06251 -0.400424,0.194525 -0.400743,0.293333 -7.04e-4,0.219426 -1.357417,1.339059 -1.628077,1.343585 -0.204248,0.0034 -0.372123,0.112146 -1.47101,0.952716 -0.372136,0.284658 -0.865167,0.632397 -1.095624,0.772757 -0.313777,0.191102 -0.419601,0.436565 -0.421348,0.977354 -0.0013,0.397188 0.08774,0.720656 0.197809,0.718815 0.110067,-0.0018 0.199158,0.300423 0.197957,0.671693 -0.0012,0.371272 0.08789,0.673531 0.19796,0.671691 0.110066,-0.0018 0.199403,0.224481 0.198504,0.502931 -8.95e-4,0.278454 0.07684,0.504964 0.172718,0.503365 0.0959,-0.0016 0.232867,0.375793 0.304378,0.838659 0.07152,0.462868 0.216982,0.840125 0.323268,0.838348 0.113022,-0.0018 0.190645,0.802338 0.186976,1.937499 -0.0036,1.069656 -0.08898,1.942114 -0.190511,1.943811 -0.101313,0.0016 -0.244322,0.231898 -0.31775,0.511563 -0.07344,0.279665 -0.216416,0.509869 -0.317748,0.511561 -0.101314,0.0016 -0.184506,0.08412 -0.184821,0.183172 -10e-4,0.321471 -2.105435,1.880116 -2.548425,1.887519 -0.14272,0.0023 -0.259737,0.07564 -0.260017,0.162751 -2.72e-4,0.08713 -0.405961,0.21644 -0.901513,0.287356 -0.495548,0.07093 -0.901215,0.196253 -0.901482,0.278532 -2.59e-4,0.08227 -1.126274,0.168416 -2.502241,0.191422 -1.375965,0.02301 -2.501543,-0.02413 -2.501283,-0.104715 z m 4.848711,-14.109531 c 2.97e-4,-0.09282 0.315764,-0.174035 0.701036,-0.18046 0.613766,-0.01032 0.700661,-0.06395 0.701855,-0.433607 7.44e-4,-0.232047 -0.08871,-0.420393 -0.198776,-0.418552 -0.110067,0.0017 -0.199283,-0.262451 -0.198233,-0.587315 0.0011,-0.324859 -0.07751,-0.589328 -0.174561,-0.587706 -0.09706,0.0016 -0.238149,-0.641489 -0.31354,-1.429134 -0.0754,-0.787645 -0.219053,-1.430715 -0.319247,-1.42904 -0.10019,0.0016 -0.181436,-0.22478 -0.180537,-0.503231 8.93e-4,-0.278453 -0.08125,-0.504894 -0.182575,-0.503199 -0.101313,0.0016 -0.245308,-0.489493 -0.319982,-1.091524 -0.07467,-0.602035 -0.215343,-1.093276 -0.312595,-1.091653 -0.09725,0.0016 -0.175869,-0.292686 -0.1747,-0.654024 0.0015,-0.443403 -0.100704,-0.688563 -0.314128,-0.754123 -0.571937,-0.175687 -1.189756,-0.08742 -1.528798,0.218441 -0.183452,0.165484 -0.653081,0.534043 -1.043622,0.819011 -0.390544,0.284966 -0.712252,0.613076 -0.714908,0.729139 -0.0026,0.116033 -0.09491,0.212522 -0.204975,0.214364 -0.110067,0.0018 -0.200503,0.117268 -0.20096,0.256483 -4.48e-4,0.139231 -0.09089,0.254642 -0.200959,0.256484 -0.111175,0.0018 -0.201601,0.45337 -0.203416,1.0159 -0.0017,0.562522 0.08569,1.011071 0.196871,1.009212 0.110068,-0.0018 0.199878,0.07769 0.19956,0.176738 -6.73e-4,0.206975 0.879856,0.891495 3.148246,2.447444 0.331148,0.227142 0.381211,0.335538 0.185666,0.402009 -0.366812,0.124687 -2.14226,-0.02582 -2.141756,-0.181563 2.22e-4,-0.06914 -0.271404,-0.167036 -0.603622,-0.217529 -0.332215,-0.05049 -0.714577,-0.168688 -0.849698,-0.262642 -0.948256,-0.659322 -1.343715,-0.998385 -1.343219,-1.15167 3.2e-4,-0.09724 -0.08951,-0.17531 -0.199571,-0.173475 -0.110066,0.0018 -0.19979,-0.104237 -0.199366,-0.235731 4.2e-4,-0.131499 -0.100624,-0.265903 -0.224548,-0.298694 -0.123943,-0.03279 -0.26911,-0.454347 -0.32263,-0.936794 -0.05353,-0.482445 -0.175912,-0.875863 -0.271985,-0.874257 -0.09608,0.0016 -0.17296,-0.528671 -0.170862,-1.178393 0.0021,-0.649722 0.08243,-1.182629 0.178495,-1.184234 0.09608,-0.0016 0.221053,-0.399149 0.277668,-0.883447 0.05665,-0.484287 0.204568,-0.910745 0.328719,-0.947684 0.124152,-0.03693 0.226083,-0.178193 0.226526,-0.313905 4.47e-4,-0.135715 0.204026,-0.432881 0.452426,-0.660374 0.744393,-0.681761 0.953594,-0.921796 0.954153,-1.094788 3.01e-4,-0.09048 0.196428,-0.22016 0.435853,-0.288181 0.414952,-0.117887 0.629184,-0.241718 1.261188,-0.728994 0.153802,-0.118575 0.466208,-0.218739 0.694227,-0.222532 0.308791,-0.0052 0.414924,-0.114604 0.415943,-0.428829 7.43e-4,-0.232045 -0.07711,-0.420584 -0.172996,-0.418983 -0.0959,0.0016 -0.232864,-0.375793 -0.304376,-0.83866 -0.07152,-0.46287 -0.216981,-0.840125 -0.323268,-0.838348 -0.106276,0.0017 -0.192511,-0.224593 -0.191612,-0.503047 9.08e-4,-0.278449 -0.08843,-0.504773 -0.198502,-0.502932 -0.110068,0.0017 -0.199775,-0.110567 -0.199324,-0.249793 0.0013,-0.396094 -0.309136,-0.296995 -1.115609,0.356151 -0.409554,0.331689 -0.822111,0.604367 -0.91679,0.605951 -0.09466,0.0015 -0.172423,0.08884 -0.172768,0.193896 -5.98e-4,0.185405 -0.841666,0.906646 -1.880157,1.612296 -0.28007,0.190306 -0.513632,0.422983 -0.519028,0.517062 -0.0053,0.09407 -0.23542,0.317388 -0.511182,0.496243 -0.275755,0.178857 -0.501654,0.411708 -0.501994,0.517442 -3.43e-4,0.105732 -0.181165,0.304709 -0.401693,0.442204 -0.220582,0.137477 -0.401386,0.349495 -0.401782,0.471143 -3.95e-4,0.121651 -0.135957,0.267146 -0.301238,0.323337 -0.1652929,0.0562 -0.3009819,0.245918 -0.3015499,0.421622 -5.69e-4,0.175704 -0.09111,0.320969 -0.201175,0.322808 -0.110067,0.0018 -0.200517,0.117255 -0.20096,0.256484 -4.49e-4,0.139231 -0.07937,0.254454 -0.17538,0.256059 -0.096,0.0016 -0.233146,0.307647 -0.304759,0.680093 -0.071612,0.372446 -0.2192016,0.67866 -0.3279661,0.680485 -0.1087818,0.0017 -0.1992242,0.452627 -0.2010019,1.001797 -0.0021,0.633793 -0.094728,1.035977 -0.2537207,1.101118 -0.2003979,0.08211 -0.2005232,0.121485 -6.409e-4,0.196885 0.1501874,0.05669 0.2487885,0.425214 0.2471757,0.923992 -0.00146,0.456352 0.077146,0.828399 0.1747355,0.826767 0.097587,-0.0016 0.2344625,0.322764 0.3041869,0.720878 0.07576,0.432635 0.2849515,0.817518 0.5199565,0.956687 0.216255,0.128052 0.392871,0.329991 0.392488,0.448728 -3.9e-4,0.118738 0.09219,0.214328 0.2057229,0.212431 0.113536,-0.0018 0.266187,0.128436 0.339235,0.289643 0.201832,0.445407 1.460322,1.367774 1.857159,1.36114 0.192976,-0.0031 0.402333,0.107202 0.465257,0.245348 0.06292,0.138164 0.297337,0.248153 0.520945,0.244413 0.22361,-0.0038 0.406335,0.06403 0.406049,0.1506 -2.84e-4,0.08656 0.201967,0.207316 0.449429,0.268348 0.247449,0.06106 0.501232,0.177408 0.563932,0.258612 0.06269,0.08122 0.715283,0.184952 1.450195,0.230541 0.734909,0.04559 1.33599,0.147857 1.335731,0.227252 -2.66e-4,0.0794 0.810104,0.130812 1.800797,0.114248 1.067416,-0.01785 1.801488,-0.09887 1.801811,-0.198868 z m 4.622946,-1.4143 c 0.322644,-0.276693 0.586867,-0.579742 0.587169,-0.673444 3.02e-4,-0.09369 0.171047,-0.218803 0.379423,-0.278004 0.265711,-0.07547 0.419645,-0.333473 0.515381,-0.863738 0.07507,-0.415855 0.221052,-0.757517 0.324377,-0.759244 0.1039,-0.0017 0.190195,-0.719814 0.19306,-1.606354 0.0029,-0.905565 -0.07796,-1.601821 -0.185891,-1.600018 -0.105089,0.0017 -0.249352,-0.261612 -0.320576,-0.585266 -0.07123,-0.323655 -0.209543,-0.587121 -0.307369,-0.585486 -0.09781,0.0016 -0.177603,-0.07808 -0.177289,-0.177113 9.12e-4,-0.288239 -1.417992,-1.314967 -1.808258,-1.308441 -0.195584,0.0033 -0.389884,-0.0809 -0.431773,-0.187049 -0.0419,-0.106143 -0.603456,-0.221047 -1.247915,-0.255342 l -1.171742,-0.06236 0.132826,1.244299 c 0.07304,0.684366 0.220329,1.268152 0.327284,1.297301 0.106967,0.02915 0.193382,0.388408 0.192058,0.798351 -0.0014,0.409946 0.08766,0.743849 0.197731,0.74201 0.110067,-0.0018 0.199405,0.224478 0.198506,0.502932 -9.08e-4,0.278451 0.07785,0.504951 0.174987,0.503324 0.09714,-0.0016 0.238084,0.565551 0.313199,1.260393 0.07512,0.694838 0.218949,1.261962 0.319634,1.260281 0.100703,-0.0016 0.182328,0.224764 0.181428,0.503216 -8.93e-4,0.278455 0.08843,0.504771 0.198506,0.502933 0.110067,-0.0018 0.199521,0.186514 0.198773,0.418552 -0.0019,0.572897 0.484228,0.53623 1.216471,-0.09173 z M 17.888217,19.338105 c 2.56e-4,-0.08122 0.25994,-0.19573 0.577049,-0.254478 0.40242,-0.07456 0.615667,-0.237397 0.706007,-0.539146 0.07118,-0.237784 0.204007,-0.43358 0.295143,-0.435104 0.247862,-0.0042 1.029468,-0.622499 1.03009,-0.814939 2.91e-4,-0.09213 0.223203,-0.31194 0.495354,-0.488456 0.272149,-0.176518 0.550631,-0.533529 0.618856,-0.793357 0.06823,-0.259833 0.206945,-0.473805 0.30828,-0.475499 0.101313,-0.0016 0.184585,-0.111871 0.185017,-0.244845 4.29e-4,-0.132969 0.171631,-0.290291 0.380396,-0.349614 0.235235,-0.06682 0.429831,-0.331134 0.511638,-0.694925 0.0726,-0.322893 0.21801,-0.588514 0.323164,-0.590256 0.105088,-0.0017 0.191683,-0.193046 0.192427,-0.425092 7.45e-4,-0.232046 0.09144,-0.423402 0.201504,-0.425244 0.110084,-0.0017 0.200883,-0.23117 0.201776,-0.509624 8.95e-4,-0.278454 0.09171,-0.507782 0.201778,-0.509622 0.111191,-0.0017 0.201599,-0.45337 0.203412,-1.015901 0.0017,-0.56253 -0.08569,-1.0110692 -0.196869,-1.0092094 C 24.013173,9.7645763 23.923712,9.5762851 23.924461,9.3442412 23.925207,9.1121959 23.842693,8.923733 23.74108,8.9254306 23.639478,8.9270788 23.280027,8.6995289 22.942314,8.4196514 22.463926,8.0231894 22.13673,7.9077337 21.461081,7.8969783 c -0.730451,-0.011634 -0.967438,0.072154 -1.502804,0.531274 -0.34958,0.2997932 -0.635864,0.6268624 -0.636186,0.7268186 -3.19e-4,0.099964 -0.09069,0.1832396 -0.200735,0.1850856 -0.110067,0.00178 -0.200514,0.1172553 -0.20096,0.2564838 -4.47e-4,0.1392259 -0.08681,0.2545722 -0.191884,0.2563344 -0.105105,0.00178 -0.251065,0.2699783 -0.324435,0.5960363 -0.07334,0.326071 -0.213369,0.59419 -0.311189,0.595827 -0.09783,0.0017 -0.178603,0.230799 -0.179498,0.509252 -9.08e-4,0.278453 -0.09171,0.507782 -0.201776,0.509623 -0.110067,0.0017 -0.201281,0.345075 -0.202593,0.762764 -0.0014,0.417678 -0.09253,0.760922 -0.202597,0.762761 -0.31148,0.0052 -0.281408,5.35769 0.03177,5.653301 0.28385,0.267932 0.549341,0.314058 0.550047,0.09557 z"
       style="fill:#666666;filter:url(#filter3298)"
       transform="matrix(1.8450241,0,0,1.7630737,1.6948661,-52.018981)" />
    <text
       xml:space="preserve"
       style="font-size:10.82150078px;font-style:italic;font-weight:normal;line-height:125%;letter-spacing:0px;word-spacing:0px;fill:#000000;fill-opacity:1;stroke:none;font-family:Sans;-inkscape-font-specification:Sans Italic"
       x="63.886566"
       y="-14.611736"
       id="text4437"
       sodipodi:linespacing="125%"
       transform="scale(1.0229768,0.97753927)"><tspan
         sodipodi:role="line"
         id="tspan4439"
         x="63.886566"
         y="-14.611736">Grup</tspan></text>
    <text
       xml:space="preserve"
       style="font-size:16.23225212px;font-style:italic;font-weight:bold;line-height:125%;letter-spacing:0px;word-spacing:0px;fill:#ff0000;fill-opacity:1;stroke:none;font-family:Sans;-inkscape-font-specification:Sans Bold Italic"
       x="63.118298"
       y="3.8267088"
       id="text4441"
       sodipodi:linespacing="125%"
       transform="scale(1.0229768,0.97753927)"><tspan
         sodipodi:role="line"
         id="tspan4443"
         x="63.118298"
         y="3.8267088">Bona</tspan></text>
    <text
       xml:space="preserve"
       style="font-size:16.23225212px;font-style:italic;font-weight:bold;line-height:125%;letter-spacing:0px;word-spacing:0px;fill:#ff0000;fill-opacity:1;stroke:none;font-family:Sans;-inkscape-font-specification:Sans Bold Italic"
       x="62.734169"
       y="21.112753"
       id="text4445"
       sodipodi:linespacing="125%"
       transform="scale(1.0229768,0.97753927)"><tspan
         sodipodi:role="line"
         id="tspan4447"
         x="62.734169"
         y="21.112753">Nova</tspan></text>
  </g>
</svg>
